<svg width="43" height="34" viewBox="0 0 43 34" fill="none" xmlns="http://www.w3.org/2000/svg">
<path d="M21.4166 9.36442L7.99992 20.4478V32.3332C7.99992 32.9894 8.51034 33.4998 9.16659 33.4998H17.3333C17.9166 33.4998 18.427 32.9894 18.427 32.3332V25.3332C18.427 24.7498 19.0103 24.1665 19.5937 24.1665H24.2603C24.9166 24.1665 25.427 24.7498 25.427 25.3332V32.3332C25.427 32.9894 26.0103 33.4998 26.5937 33.4998H34.8333C35.4166 33.4998 35.9999 32.9894 35.9999 32.3332V20.3748L22.5103 9.36442C22.3645 9.21859 22.1458 9.14567 21.9999 9.14567C21.7812 9.14567 21.5624 9.21859 21.4166 9.36442ZM42.6353 16.8748L36.5833 11.8436V1.78109C36.5833 1.27067 36.1458 0.906085 35.7083 0.906085H31.6249C31.1145 0.906085 30.7499 1.27067 30.7499 1.78109V7.03109L24.1874 1.63525C23.6041 1.19775 22.802 0.906085 21.9999 0.906085C21.1249 0.906085 20.3228 1.19775 19.7395 1.63525L1.29158 16.8748C1.07283 17.0207 0.927001 17.3123 0.927001 17.5311C0.927001 17.7498 1.07283 17.9686 1.14575 18.1144L3.04158 20.3748C3.18742 20.5936 3.40617 20.6665 3.69783 20.6665C3.91658 20.6665 4.13533 20.5936 4.28117 20.4478L21.4166 6.37484C21.5624 6.229 21.7812 6.15609 21.9999 6.15609C22.1458 6.15609 22.3645 6.229 22.5103 6.37484L39.6458 20.4478C39.7916 20.5936 40.0103 20.6665 40.2291 20.6665C40.5208 20.6665 40.7395 20.5936 40.8853 20.3748L42.7812 18.1144C42.927 17.9686 42.9999 17.7498 42.9999 17.5311C42.9999 17.3123 42.8541 17.0207 42.6353 16.8748Z" fill="#F90000"/>
</svg>
