<svg width="13" height="14" viewBox="0 0 13 14" fill="none" xmlns="http://www.w3.org/2000/svg">
<path d="M4.4196 10.7467C4.4196 10.6966 4.36947 10.6465 4.29427 10.6465C4.21908 10.6465 4.16895 10.6966 4.16895 10.7467C4.16895 10.7969 4.21908 10.847 4.29427 10.8219C4.36947 10.8219 4.4196 10.7969 4.4196 10.7467ZM3.64258 10.6214C3.64258 10.6715 3.69271 10.7467 3.7679 10.7467C3.81803 10.7718 3.89323 10.7467 3.91829 10.6966C3.91829 10.6465 3.89323 10.5964 3.81803 10.5713C3.74284 10.5462 3.66764 10.5713 3.64258 10.6214ZM4.77051 10.5964C4.69531 10.5964 4.64518 10.6465 4.64518 10.7217C4.64518 10.7718 4.72038 10.7969 4.79557 10.7718C4.87077 10.7467 4.9209 10.7217 4.89583 10.6715C4.89583 10.6214 4.82064 10.5713 4.77051 10.5964ZM6.39974 0.971354C2.94076 0.971354 0.283854 3.62825 0.283854 7.08724C0.283854 9.86947 2.01335 12.2507 4.51986 13.1029C4.8457 13.153 4.94596 12.9525 4.94596 12.8021C4.94596 12.6266 4.94596 11.7744 4.94596 11.248C4.94596 11.248 3.19141 11.624 2.81543 10.4961C2.81543 10.4961 2.53971 9.76921 2.13867 9.59375C2.13867 9.59375 1.56217 9.19271 2.16374 9.19271C2.16374 9.19271 2.79036 9.24284 3.14128 9.8444C3.69271 10.8219 4.59505 10.5462 4.97103 10.3708C5.02116 9.96973 5.17155 9.69401 5.37207 9.51855C3.96842 9.36816 2.53971 9.16764 2.53971 6.76139C2.53971 6.05957 2.74023 5.73372 3.14128 5.28255C3.06608 5.1071 2.86556 4.4554 3.21647 3.57812C3.71777 3.42773 4.94596 4.25488 4.94596 4.25488C5.44727 4.10449 5.97363 4.05436 6.5 4.05436C7.05143 4.05436 7.5778 4.10449 8.0791 4.25488C8.0791 4.25488 9.28223 3.40267 9.80859 3.57812C10.1595 4.4554 9.93392 5.1071 9.88379 5.28255C10.2848 5.73372 10.5355 6.05957 10.5355 6.76139C10.5355 9.16764 9.05664 9.36816 7.65299 9.51855C7.87858 9.71908 8.0791 10.0951 8.0791 10.6966C8.0791 11.5238 8.05404 12.5765 8.05404 12.777C8.05404 12.9525 8.17936 13.153 8.50521 13.0778C11.0117 12.2507 12.7161 9.86947 12.7161 7.08724C12.7161 3.62825 9.88379 0.971354 6.39974 0.971354ZM2.71517 9.61881C2.66504 9.64388 2.6901 9.71908 2.71517 9.76921C2.7653 9.79427 2.81543 9.81934 2.86556 9.79427C2.89062 9.76921 2.89062 9.69401 2.84049 9.64388C2.79036 9.61881 2.74023 9.59375 2.71517 9.61881ZM2.43945 9.41829C2.41439 9.46842 2.43945 9.49349 2.48958 9.51855C2.53971 9.54362 2.58984 9.54362 2.61491 9.49349C2.61491 9.46842 2.58984 9.44336 2.53971 9.41829C2.48958 9.39323 2.46452 9.39323 2.43945 9.41829ZM3.24154 10.3206C3.21647 10.3457 3.21647 10.4209 3.29167 10.471C3.3418 10.5212 3.41699 10.5462 3.44206 10.4961C3.46712 10.471 3.46712 10.3958 3.41699 10.3457C3.36686 10.2956 3.29167 10.2705 3.24154 10.3206ZM2.96582 9.94466C2.91569 9.96973 2.91569 10.0449 2.96582 10.0951C3.01595 10.1452 3.06608 10.1702 3.11621 10.1452C3.14128 10.1201 3.14128 10.0449 3.11621 9.99479C3.06608 9.94466 3.01595 9.9196 2.96582 9.94466Z" fill="#333333"/>
</svg>
