<svg width="12" height="12" viewBox="0 0 12 12" fill="none" xmlns="http://www.w3.org/2000/svg">
  <path d="M6 3.30501C4.39583 3.30501 3.11751 4.6084 3.11751 6.1875C3.11751 7.79167 4.39583 9.06999 6 9.06999C7.5791 9.06999 8.88249 7.79167 8.88249 6.1875C8.88249 4.6084 7.5791 3.30501 6 3.30501ZM6 8.06738C4.97233 8.06738 4.12012 7.24023 4.12012 6.1875C4.12012 5.15983 4.94727 4.33268 6 4.33268C7.02767 4.33268 7.85482 5.15983 7.85482 6.1875C7.85482 7.24023 7.02767 8.06738 6 8.06738ZM9.65951 3.20475C9.65951 2.82878 9.35872 2.52799 8.98275 2.52799C8.60677 2.52799 8.30599 2.82878 8.30599 3.20475C8.30599 3.58073 8.60677 3.88151 8.98275 3.88151C9.35872 3.88151 9.65951 3.58073 9.65951 3.20475ZM11.5645 3.88151C11.5143 2.97917 11.3138 2.17708 10.6621 1.52539C10.0104 0.873697 9.20833 0.673177 8.30599 0.623046C7.37858 0.572916 4.59635 0.572916 3.66895 0.623046C2.7666 0.673177 1.98958 0.873697 1.31283 1.52539C0.661133 2.17708 0.460612 2.97917 0.410482 3.88151C0.360351 4.80892 0.360351 7.59115 0.410482 8.51855C0.460612 9.4209 0.661133 10.1979 1.31283 10.8747C1.98958 11.5264 2.7666 11.7269 3.66895 11.777C4.59635 11.8271 7.37858 11.8271 8.30599 11.777C9.20833 11.7269 10.0104 11.5264 10.6621 10.8747C11.3138 10.1979 11.5143 9.4209 11.5645 8.51855C11.6146 7.59115 11.6146 4.80892 11.5645 3.88151ZM10.3613 9.49609C10.1859 9.9974 9.78483 10.3734 9.30859 10.5739C8.55664 10.8747 6.80208 10.7995 6 10.7995C5.17285 10.7995 3.41829 10.8747 2.69141 10.5739C2.1901 10.3734 1.81413 9.9974 1.61361 9.49609C1.31283 8.76921 1.38802 7.01465 1.38802 6.1875C1.38802 5.38542 1.31283 3.63086 1.61361 2.87891C1.81413 2.40267 2.1901 2.02669 2.69141 1.82617C3.41829 1.52539 5.17285 1.60059 6 1.60059C6.80208 1.60059 8.55664 1.52539 9.30859 1.82617C9.78483 2.00163 10.1608 2.40267 10.3613 2.87891C10.6621 3.63086 10.5869 5.38542 10.5869 6.1875C10.5869 7.01465 10.6621 8.76921 10.3613 9.49609Z" fill="#333333"/>
</svg>