<svg width="12" height="12" viewBox="0 0 12 12" fill="none" xmlns="http://www.w3.org/2000/svg">
  <path d="M10.8125 0.572916H1.16243C0.736328 0.572916 0.385417 0.948893 0.385417 1.40006V11C0.385417 11.4512 0.736328 11.8021 1.16243 11.8021H10.8125C11.2386 11.8021 11.6146 11.4512 11.6146 11V1.40006C11.6146 0.948893 11.2386 0.572916 10.8125 0.572916ZM3.76921 10.1979H2.11491V4.85905H3.76921V10.1979ZM2.94206 4.1071C2.39062 4.1071 1.96452 3.68099 1.96452 3.15462C1.96452 2.62825 2.39062 2.17708 2.94206 2.17708C3.46842 2.17708 3.89453 2.62825 3.89453 3.15462C3.89453 3.68099 3.46842 4.1071 2.94206 4.1071ZM10.0104 10.1979H8.33105V7.59115C8.33105 6.98958 8.33105 6.1875 7.47884 6.1875C6.60156 6.1875 6.47624 6.86426 6.47624 7.56608V10.1979H4.82194V4.85905H6.40104V5.58594H6.42611C6.65169 5.15983 7.20313 4.70866 8.00521 4.70866C9.68457 4.70866 10.0104 5.83659 10.0104 7.2653V10.1979Z" fill="#333333"/>
</svg>