<svg width="34" height="34" viewBox="0 0 34 34" fill="none" xmlns="http://www.w3.org/2000/svg">
<path d="M32.7499 11.5101L33.2603 8.59342C33.4062 8.01009 32.9687 7.49967 32.3853 7.49967H26.9895L28.0103 1.59342C28.1562 1.01009 27.7187 0.499672 27.1353 0.499672H24.2187C23.7812 0.499672 23.4166 0.864256 23.3437 1.22884L22.2499 7.49967H15.0312L16.1249 1.59342C16.1978 1.01009 15.7603 0.499672 15.2499 0.499672H12.2603C11.8228 0.499672 11.4583 0.864256 11.3853 1.22884L10.2916 7.49967H4.53117C4.09367 7.49967 3.72909 7.86426 3.65617 8.22884L3.14575 11.1455C3.07284 11.7288 3.43742 12.1663 4.02075 12.1663H9.4895L7.81242 21.4997H2.052C1.6145 21.4997 1.24992 21.8643 1.177 22.2288L0.666586 25.1455C0.520753 25.7288 0.958253 26.1663 1.54159 26.1663H6.93742L5.91659 32.1455C5.77075 32.7288 6.20825 33.1663 6.79159 33.1663H9.70825C10.1458 33.1663 10.5103 32.8747 10.5833 32.5101L11.677 26.1663H18.8958L17.802 32.1455C17.7291 32.7288 18.1666 33.1663 18.677 33.1663H21.6666C22.1041 33.1663 22.4687 32.8747 22.5416 32.5101L23.6353 26.1663H29.3958C29.8333 26.1663 30.1978 25.8747 30.2708 25.5101L30.7812 22.5934C30.8541 22.0101 30.4895 21.4997 29.9062 21.4997H24.4374L26.1145 12.1663H31.8749C32.3124 12.1663 32.677 11.8747 32.7499 11.5101ZM19.6978 21.4997H12.552L14.2291 12.1663H21.3749L19.6978 21.4997Z" fill="#F90000"/>
</svg>
