<svg width="38" height="29" viewBox="0 0 38 29" fill="none" xmlns="http://www.w3.org/2000/svg">
<path d="M36.9374 10.0934C35.2603 11.4059 33.1458 13.0101 25.7083 18.4059C24.2499 19.4997 21.552 21.9059 18.9999 21.9059C16.3749 21.9059 13.7499 19.4997 12.2187 18.4059C4.78117 13.0101 2.66659 11.4059 0.989502 10.0934C0.697835 9.87467 0.333252 10.0934 0.333252 10.458V25.333C0.333252 27.3018 1.8645 28.833 3.83325 28.833H34.1666C36.0624 28.833 37.6666 27.3018 37.6666 25.333V10.458C37.6666 10.0934 37.2291 9.87467 36.9374 10.0934ZM18.9999 19.4997C20.677 19.5726 23.0833 17.3851 24.3228 16.5101C34.0208 9.51009 34.7499 8.85384 36.9374 7.10384C37.3749 6.81217 37.6666 6.30176 37.6666 5.71842V4.33301C37.6666 2.43717 36.0624 0.833006 34.1666 0.833006H3.83325C1.8645 0.833006 0.333252 2.43717 0.333252 4.33301V5.71842C0.333252 6.30176 0.552002 6.81217 0.989502 7.10384C3.177 8.85384 3.90617 9.51009 13.6041 16.5101C14.8437 17.3851 17.2499 19.5726 18.9999 19.4997Z" fill="#F90000"/>
</svg>
