<svg width="38" height="38" viewBox="0 0 38 38" fill="none" xmlns="http://www.w3.org/2000/svg">
<path d="M36.2812 2.32275L28.6978 0.572752C27.8958 0.354002 27.0208 0.791502 26.6562 1.59359L23.1562 9.76025C22.8645 10.4894 23.0833 11.2915 23.6666 11.8019L28.1145 15.4478C25.4895 20.9894 20.8958 25.6561 15.2083 28.354L11.5624 23.9061C11.052 23.3228 10.2499 23.104 9.52075 23.3957L1.35409 26.8957C0.552002 27.2603 0.187419 28.1353 0.333252 28.9373L2.08325 36.5207C2.302 37.3228 2.95825 37.8332 3.83325 37.8332C22.4999 37.8332 37.6666 22.7394 37.6666 3.99984C37.6666 3.19775 37.0833 2.5415 36.2812 2.32275Z" fill="#F90000"/>
</svg>
