<svg width="12" height="14" viewBox="0 0 12 14" fill="none" xmlns="http://www.w3.org/2000/svg">
  <path d="M11.6146 6.0345V3.85384C11.5895 3.85384 11.5895 3.85384 11.5895 3.85384C10.988 3.85384 10.4115 3.67839 9.93522 3.35254C9.2334 2.90137 8.7321 2.17448 8.58171 1.34733C8.53158 1.17187 8.53158 0.996419 8.53158 0.820963C8.53158 0.795898 8.53158 0.795898 8.53158 0.770833H6.32585V9.54362C6.32585 10.5713 5.47363 11.4235 4.44596 11.4235C3.41829 11.4235 2.56608 10.5713 2.56608 9.54362C2.56608 8.51595 3.41829 7.66374 4.44596 7.66374C4.64648 7.66374 4.82194 7.6888 5.02246 7.764V5.50814C4.82194 5.48307 4.64648 5.45801 4.44596 5.45801C2.1901 5.45801 0.385417 7.28776 0.385417 9.54362C0.385417 11.7995 2.1901 13.6042 4.44596 13.6042C6.70182 13.6042 8.53158 11.7995 8.53158 9.54362V5.05697C9.38379 5.68359 10.4365 6.0345 11.5895 6.0345H11.6146Z" fill="#333333"/>
</svg>