<svg width="14" height="12" viewBox="0 0 14 12" fill="none" xmlns="http://www.w3.org/2000/svg">
  <path d="M12.0883 3.24723C12.5896 2.87126 13.0408 2.42008 13.3917 1.89372C12.9405 2.09424 12.4141 2.24463 11.8878 2.29476C12.4392 1.96891 12.8403 1.46761 13.0408 0.840983C12.5395 1.14176 11.963 1.36735 11.3865 1.49268C10.8852 0.966308 10.2084 0.665527 9.45647 0.665527C8.00269 0.665527 6.82463 1.84359 6.82463 3.29736C6.82463 3.49788 6.8497 3.6984 6.89983 3.89893C4.71916 3.7736 2.76408 2.72087 1.4607 1.14176C1.23511 1.51774 1.10979 1.96891 1.10979 2.47021C1.10979 3.37256 1.56096 4.17464 2.28785 4.65088C1.86174 4.62581 1.43563 4.52555 1.08472 4.32503V4.3501C1.08472 5.62842 1.98707 6.68115 3.19019 6.9318C2.98967 6.98193 2.73902 7.03206 2.51343 7.03206C2.33798 7.03206 2.18759 7.007 2.01213 6.98193C2.33798 8.03467 3.31552 8.78662 4.46851 8.81169C3.56617 9.51351 2.43824 9.93962 1.21005 9.93962C0.984461 9.93962 0.783941 9.91455 0.58342 9.88949C1.73641 10.6414 3.115 11.0675 4.6189 11.0675C9.45647 11.0675 12.0883 7.08219 12.0883 3.59814C12.0883 3.47282 12.0883 3.37256 12.0883 3.24723Z" fill="#333333"/>
</svg>