<svg width="13" height="12" viewBox="0 0 13 12" fill="none" xmlns="http://www.w3.org/2000/svg">
<path d="M10.4168 1.89372C9.38908 0.840983 7.98544 0.23942 6.48153 0.23942C3.42359 0.23942 0.917079 2.74593 0.917079 5.80387C0.917079 6.80648 1.19279 7.75895 1.66903 8.5861L0.892014 11.4686L3.82463 10.7166C4.65178 11.1427 5.55412 11.3934 6.48153 11.3934C9.56454 11.3934 12.1212 8.88688 12.1212 5.82894C12.1212 4.32503 11.4695 2.94645 10.4168 1.89372ZM6.48153 10.4409C5.65438 10.4409 4.8523 10.2153 4.12541 9.78923L3.97502 9.68896L2.22046 10.1652L2.6967 8.46077L2.57138 8.28532C2.1202 7.53337 1.86955 6.68115 1.86955 5.80387C1.86955 3.2723 3.94996 1.19189 6.5066 1.19189C7.73479 1.19189 8.88778 1.66813 9.76506 2.54541C10.6423 3.42269 11.1687 4.57568 11.1687 5.82894C11.1687 8.36051 9.03817 10.4409 6.48153 10.4409ZM9.03817 6.98193C8.88778 6.90674 8.21102 6.58089 8.0857 6.53076C7.96037 6.48063 7.86011 6.45557 7.75985 6.60596C7.68466 6.73128 7.40894 7.05713 7.33375 7.15739C7.23349 7.23258 7.15829 7.25765 7.03296 7.18245C6.20582 6.78141 5.67945 6.45557 5.12802 5.52816C4.97763 5.27751 5.27841 5.30257 5.52906 4.7762C5.57919 4.67594 5.55412 4.60075 5.52906 4.52555C5.50399 4.45036 5.20321 3.7736 5.10295 3.49788C4.97763 3.22217 4.87737 3.24723 4.7771 3.24723C4.70191 3.24723 4.60165 3.24723 4.52645 3.24723C4.42619 3.24723 4.2758 3.2723 4.15048 3.42269C4.02515 3.57308 3.67424 3.89893 3.67424 4.57568C3.67424 5.27751 4.15048 5.9292 4.22567 6.02946C4.30087 6.10465 5.20321 7.5083 6.60686 8.10986C7.48414 8.5109 7.83505 8.53597 8.28622 8.46077C8.53687 8.43571 9.0883 8.13493 9.21363 7.80908C9.33895 7.48324 9.33895 7.20752 9.28882 7.15739C9.26376 7.08219 9.1635 7.05713 9.03817 6.98193Z" fill="#333333"/>
</svg>
