<svg width="15" height="10" viewBox="0 0 15 10" fill="none" xmlns="http://www.w3.org/2000/svg">
  <path d="M14.042 1.90397C13.8916 1.30241 13.4154 0.826171 12.8389 0.675781C11.7611 0.375 7.5 0.375 7.5 0.375C7.5 0.375 3.21387 0.375 2.13607 0.675781C1.55957 0.826171 1.08333 1.30241 0.932942 1.90397C0.632161 2.95671 0.632161 5.21256 0.632161 5.21256C0.632161 5.21256 0.632161 7.44336 0.932942 8.52116C1.08333 9.12272 1.55957 9.57389 2.13607 9.72428C3.21387 10 7.5 10 7.5 10C7.5 10 11.7611 10 12.8389 9.72428C13.4154 9.57389 13.8916 9.12272 14.042 8.52116C14.3428 7.44336 14.3428 5.21256 14.3428 5.21256C14.3428 5.21256 14.3428 2.95671 14.042 1.90397ZM6.09635 7.24284V3.18229L9.6556 5.21256L6.09635 7.24284Z" fill="black"/>
</svg>
